<?xml version="1.0" encoding="UTF-8"?>
<svg xmlns="http://www.w3.org/2000/svg" xmlns:xlink="http://www.w3.org/1999/xlink" width="0" height="0">

<symbol id="header-theme-switcher-light-bulb" viewBox="0 0 24 24" >
  <path d="M12 2.0014C16.0041 2.0014 19.25 5.24734 19.25 9.2514C19.25 11.3475 18.3493 13.2711 16.5869 14.9933C16.51 15.0685 16.4504 15.1591 16.4118 15.2586L16.3804 15.3609L15.2493 20.2565C15.0266 21.2204 14.2035 21.9188 13.2302 21.9934L13.057 22H10.9433C9.95374 22 9.08791 21.355 8.79629 20.4233L8.75088 20.2559L7.62132 15.3612C7.58904 15.2213 7.51728 15.0936 7.41456 14.9933C5.73515 13.353 4.83778 11.5302 4.75613 9.54966L4.75 9.2514L4.75388 9.01209C4.88014 5.1188 8.07601 2.0014 12 2.0014ZM14.115 18.4994H9.884L10.2125 19.9186C10.2831 20.2249 10.5357 20.4508 10.8401 20.4929L10.9433 20.5H13.057C13.3713 20.5 13.6481 20.3048 13.7577 20.0178L13.7878 19.9188L14.115 18.4994ZM12 3.5014C8.89821 3.5014 6.37006 5.95742 6.25415 9.03085L6.25 9.2514L6.25672 9.52841C6.33286 11.0918 7.05722 12.5475 8.46262 13.9201C8.72675 14.1781 8.92265 14.4964 9.03422 14.8464L9.08291 15.0239L9.538 16.9994H14.461L14.9189 15.0232C15.0019 14.6639 15.1718 14.3314 15.4124 14.0543L15.5386 13.9205C16.9432 12.5479 17.6672 11.092 17.7433 9.52845L17.75 9.2514L17.7458 9.03085C17.6299 5.95742 15.1018 3.5014 12 3.5014Z" />
</symbol>

<symbol id="header-theme-switcher-dark-bulb" >
  <path d="M15.538 18.9994L15.2473 20.2579C15.0241 21.2212 14.2013 21.9188 13.2285 21.9934L13.0554 22H10.9437C9.95427 22 9.08851 21.3551 8.79679 20.4236L8.75136 20.2563L8.46101 18.9994H15.538ZM12 2.0014C16.0041 2.0014 19.25 5.24734 19.25 9.2514C19.25 11.388 18.3144 13.3447 16.4846 15.0921C16.4493 15.1259 16.4247 15.1691 16.4137 15.2167L15.886 17.4994H8.11401L7.58801 15.2168C7.57703 15.1692 7.55235 15.1259 7.51702 15.0922C5.68617 13.3447 4.75001 11.388 4.75001 9.2514C4.75001 5.24734 7.99594 2.0014 12 2.0014Z"/>
</symbol>

<symbol id="landing-coin-tether"  viewBox="0 0 26 26">
  <path opacity="0.2" d="M25.9293 13.0003C25.9293 20.1422 20.1397 25.9319 12.9979 25.9319C5.856 25.9319 0.0664062 20.1422 0.0664062 13.0003C0.0664062 5.85844 5.856 0.0688477 12.9979 0.0688477C20.1397 0.0688477 25.9293 5.85844 25.9293 13.0003Z" fill="#00A478"/>
  <path d="M11.6724 12.7739V10.5116H8.604V8.52856H17.1783V10.5395H14.1099V12.7739H11.6724Z" fill="#00A478"/>
  <path fill-rule="evenodd" clip-rule="evenodd" d="M7.28467 13.0253C7.28467 12.2712 9.75084 11.6567 12.8192 11.6567C15.8876 11.6567 18.3538 12.2712 18.3538 13.0253C18.3538 13.7794 15.8876 14.3938 12.8192 14.3938C9.75084 14.3938 7.28467 13.7794 7.28467 13.0253ZM17.895 13.0253C17.6942 12.746 16.031 11.8802 12.8192 11.8802C9.60746 11.8802 7.94423 12.7181 7.74349 13.0253C7.94423 13.3046 9.60746 13.7235 12.8192 13.7235C16.0597 13.7235 17.6942 13.3046 17.895 13.0253Z" fill="#00A478"/>
  <path d="M14.11 13.4722V11.9082C13.7085 11.8802 13.2784 11.8523 12.8482 11.8523C12.4468 11.8523 12.074 11.8523 11.7012 11.8802V13.4443C12.0453 13.4443 12.4468 13.4722 12.8482 13.4722C13.2784 13.5001 13.7085 13.5001 14.11 13.4722Z" fill="#00A478"/>
  <path d="M12.8194 14.394C12.418 14.394 12.0452 14.394 11.6724 14.3661V18.5276H14.0812V14.3381C13.6797 14.3661 13.2496 14.394 12.8194 14.394Z" fill="#00A478"/>
</symbol>

<symbol id="landing-coin-bitcoin" viewBox="0 0 26 26" fill="none">
  <path opacity="0.2" d="M13 26C20.1797 26 26 20.1797 26 13C26 5.8203 20.1797 0 13 0C5.8203 0 0 5.8203 0 13C0 20.1797 5.8203 26 13 26Z" fill="#F7931A"/>
  <path fill-rule="evenodd" clip-rule="evenodd" d="M18.6001 10.8077C18.2249 10.4988 17.7363 10.3441 17.1344 10.3439C17.7602 9.77993 17.9147 9.04894 17.5983 8.15078C17.486 7.82447 17.3256 7.5574 17.1168 7.3492C16.9078 7.14097 16.6592 6.99368 16.3701 6.90744C16.0811 6.82096 15.779 6.77561 15.4643 6.77089C15.1494 6.76619 14.7962 6.79384 14.4049 6.85387L13.9286 4.94357L12.8102 5.22242L13.2733 7.07964C13.0796 7.12793 12.7855 7.20661 12.3911 7.31571L11.9242 5.44332L10.8057 5.7222L11.282 7.6325C11.1234 7.67742 10.8893 7.73854 10.5794 7.8158L9.03782 8.19204L9.34779 9.43527L10.1539 9.23428C10.5219 9.14253 10.7802 9.26068 10.9288 9.58858L11.4713 11.7642C11.5198 11.7522 11.5591 11.7451 11.5894 11.7429L11.4732 11.7719L12.2329 14.8191C12.2585 15.0865 12.1503 15.2504 11.9081 15.3108L11.1021 15.5118L11.2228 16.9552L12.6754 16.593C12.7674 16.5701 12.9008 16.5382 13.0757 16.497C13.2506 16.4561 13.3816 16.4248 13.4688 16.403L13.9507 18.336L15.0695 18.0571L14.5932 16.1468C14.7978 16.1013 15.0937 16.0302 15.4811 15.9336L15.9555 17.8362L17.0739 17.5574L16.5919 15.6243C16.984 15.5052 17.3268 15.3796 17.6202 15.2472C17.9138 15.1148 18.1863 14.9544 18.4374 14.7655C18.6886 14.5769 18.8865 14.3704 19.0312 14.1464C19.1761 13.9226 19.276 13.6587 19.3316 13.3549C19.3868 13.0513 19.3869 12.7158 19.3312 12.3485C19.2193 11.6304 18.9754 11.1168 18.6001 10.8077ZM12.753 8.67459L12.7531 8.67457L13.3333 11.0018C13.3576 10.9957 13.4413 10.9762 13.5848 10.9431C13.7284 10.91 13.8409 10.8819 13.9226 10.8589C14.0043 10.8359 14.1241 10.8005 14.282 10.7531C14.4399 10.7058 14.5696 10.6586 14.6711 10.6118C14.7725 10.5651 14.8902 10.5062 15.0242 10.4352C15.1582 10.3643 15.264 10.2882 15.3415 10.2072C15.419 10.1262 15.4917 10.0356 15.5592 9.93549C15.6268 9.83546 15.668 9.72181 15.6825 9.59477C15.697 9.46762 15.6866 9.33329 15.6514 9.19177C15.6098 9.02503 15.5427 8.88477 15.4499 8.77102C15.3574 8.65721 15.2571 8.56944 15.1491 8.50781C15.0412 8.44615 14.9075 8.40432 14.7476 8.3825C14.588 8.36056 14.4443 8.35208 14.317 8.35702C14.1897 8.36197 14.0358 8.37883 13.8553 8.40773C13.6747 8.43665 13.5327 8.46534 13.4292 8.4938C13.3258 8.5223 13.1957 8.55738 13.0389 8.59923C12.8823 8.64099 12.787 8.6661 12.7531 8.67457L12.7531 8.67454L12.753 8.67456L12.753 8.67459ZM16.992 13.4231C17.0431 13.3191 17.0771 13.2032 17.0942 13.0754C17.1113 12.9476 17.1022 12.8132 17.0669 12.6715C17.0215 12.4895 16.9449 12.3368 16.8368 12.2135C16.729 12.0901 16.6105 11.9963 16.4812 11.9318C16.352 11.8674 16.1935 11.825 16.0059 11.8048C15.8181 11.7844 15.6481 11.7772 15.4953 11.7831C15.3423 11.789 15.1575 11.811 14.9409 11.849C14.7239 11.8869 14.555 11.9211 14.4339 11.9513C14.3129 11.9815 14.1574 12.0227 13.9673 12.0755C13.7773 12.1284 13.6629 12.1595 13.6242 12.1692L14.2631 14.7315C14.3019 14.7218 14.3917 14.7008 14.5328 14.6681C14.6738 14.6356 14.7904 14.608 14.8824 14.5851C14.9743 14.5621 15.1018 14.5263 15.2645 14.4778C15.4273 14.4291 15.5663 14.3837 15.6817 14.3415C15.7973 14.2992 15.9299 14.2434 16.0799 14.1738C16.2295 14.1042 16.3551 14.0355 16.4564 13.9671C16.5576 13.8989 16.6595 13.8173 16.7617 13.7219C16.8639 13.6268 16.9406 13.527 16.992 13.4231Z" fill="#F7931A"/>
  <path fill-rule="evenodd" clip-rule="evenodd" d="M13 24C19.0751 24 24 19.0751 24 13C24 6.92487 19.0751 2 13 2C6.92487 2 2 6.92487 2 13C2 19.0751 6.92487 24 13 24Z" stroke="#F7931A" stroke-width="1.38125"/>
</symbol>

<symbol id="landing-coin-ethereum" viewBox="0 0 16 26">
  <path d="M8.03918 0.140719V0.153526C8.05199 0.217566 8.05199 0.294413 8.05199 0.37126V9.60574C8.03918 9.65698 8.00076 9.66978 7.96233 9.6954C7.69337 9.82348 7.43721 9.93875 7.16825 10.054C6.79682 10.2205 6.41258 10.3998 6.04115 10.5663L4.69632 11.1811C4.3249 11.3476 3.95347 11.5141 3.59485 11.6806C3.15938 11.8855 2.7111 12.0777 2.27563 12.2826C1.90421 12.4491 1.53278 12.6284 1.14854 12.7949C0.841152 12.9358 0.533763 13.0639 0.239182 13.2048C0.213566 13.2176 0.18795 13.2304 0.162335 13.2304C0.149527 13.2304 0.149527 13.2304 0.136719 13.2176L0.482532 12.6412C1.14854 11.5397 1.80174 10.4511 2.46775 9.34959C3.17219 8.17126 3.88943 6.99294 4.59386 5.81461C5.24706 4.72594 5.91307 3.63727 6.56628 2.5486C7.04017 1.75451 7.52687 0.960423 8.00076 0.166334C8.01357 0.140719 8.02637 0.127911 8.02637 0.102295H8.03918C8.02637 0.115103 8.03918 0.127911 8.03918 0.140719Z" fill="#8A92B2"/>
  <path d="M15.9024 13.2177L15.9152 13.2305L14.0324 14.3448L8.11516 17.8413C8.08954 17.8541 8.06393 17.8669 8.05112 17.8797C8.0127 17.8797 8.0127 17.8413 8.0127 17.8285V17.7132V9.79796C8.0127 9.75954 8.0127 9.70831 8.0255 9.66988C8.03831 9.61865 8.07673 9.63146 8.11516 9.64427C8.28166 9.72112 8.46097 9.79796 8.62747 9.87481C9.12698 10.1054 9.62649 10.3359 10.126 10.5536C10.5615 10.7457 10.9841 10.9507 11.4196 11.1428C11.8551 11.3349 12.2905 11.5398 12.726 11.732C13.0974 11.8985 13.4817 12.0778 13.8531 12.2443C14.2245 12.4108 14.6088 12.5901 14.9802 12.7566C15.2748 12.8847 15.5693 13.0255 15.8639 13.1536C15.8639 13.1921 15.8767 13.2049 15.9024 13.2177Z" fill="#454A75"/>
  <path d="M8.03821 25.8335C8.03821 25.8463 8.0254 25.8591 8.0254 25.8719H8.01259C8.01259 25.8463 7.98697 25.8335 7.97417 25.8078C7.18008 24.6936 6.38599 23.5665 5.5919 22.4522C4.785 21.3123 3.9653 20.1596 3.1584 19.0197C2.37712 17.9182 1.58303 16.8039 0.801752 15.7024C0.596826 15.4078 0.3919 15.1261 0.186974 14.8315C0.174166 14.8059 0.161358 14.7931 0.135742 14.7546C0.174166 14.7546 0.199782 14.7803 0.212589 14.7931C1.32688 15.4463 2.42835 16.0995 3.54264 16.7527C4.82343 17.5083 6.09141 18.264 7.3722 19.0197L8.0254 19.4039C8.05101 19.4295 8.05101 19.4551 8.05101 19.4807V25.6541C8.05101 25.7182 8.05101 25.7822 8.03821 25.8335Z" fill="#8A92B2"/>
  <path d="M0.123047 13.2432V13.2304C0.532899 13.0511 0.929943 12.8589 1.3398 12.6796C1.86492 12.4363 2.39004 12.2057 2.91516 11.9624C3.31221 11.7831 3.72206 11.591 4.11911 11.4116C4.70827 11.1427 5.28462 10.8865 5.87379 10.6176C6.27083 10.4382 6.66787 10.2589 7.07773 10.0668C7.3595 9.93874 7.65408 9.81066 7.93585 9.68258C7.96147 9.66977 7.99989 9.65696 8.0127 9.63135C8.02551 9.63135 8.02551 9.64416 8.0127 9.65696V17.79C8.0127 17.8284 7.99989 17.8668 8.02551 17.8924C7.99989 17.9309 7.97428 17.8924 7.96147 17.8796C7.8462 17.8156 7.73093 17.7515 7.61566 17.6747C5.14374 16.2146 2.65901 14.7417 0.187086 13.2816C0.174278 13.2688 0.148663 13.256 0.123047 13.2432Z" fill="#62688F"/>
  <path d="M15.8766 14.7546H15.8894C15.8894 14.7803 15.8638 14.8059 15.851 14.8315C13.4944 18.1487 11.1377 21.4788 8.78106 24.796C8.53771 25.1418 8.28155 25.4876 8.0382 25.8335C8.02539 25.8207 8.02539 25.8078 8.02539 25.795V25.7182V19.5064V19.3911C8.56332 19.0709 9.08845 18.7635 9.62638 18.4433C11.7013 17.2138 13.7761 15.997 15.8382 14.7674C15.851 14.7803 15.8638 14.7674 15.8766 14.7546Z" fill="#62688F"/>
  <path d="M8.02562 9.65701V9.6314V9.55455V0.256028C8.02562 0.217604 8.01281 0.191988 8.03842 0.153564C10.6384 4.46982 13.2384 8.77327 15.8256 13.0895C15.8512 13.1279 15.8897 13.1792 15.9025 13.2304C15.7232 13.1664 15.5567 13.0767 15.3902 12.9999C15.1852 12.9102 14.9675 12.8078 14.7626 12.7181C14.6345 12.6541 14.4936 12.6028 14.3655 12.5388C14.1478 12.4363 13.9301 12.3467 13.7123 12.2442C13.5842 12.193 13.4562 12.1289 13.3281 12.0649L12.4828 11.6807C12.3419 11.6166 12.201 11.5526 12.0473 11.4885L11.4325 11.2196C11.3044 11.1683 11.1764 11.1043 11.0483 11.0403L10.203 10.656C10.0621 10.592 9.92118 10.5279 9.76749 10.4639L9.15271 10.1949C9.01182 10.1309 8.88374 10.0669 8.74286 10.0028C8.49951 9.88755 8.25616 9.77228 8 9.66982C8.03842 9.65701 8.02562 9.65701 8.02562 9.65701Z" fill="#62688F"/>
</symbol>

<symbol id="landing-coin-tron" viewBox="0 0 26 26">
  <path opacity="0.2" d="M13 26C20.1797 26 26 20.1797 26 13C26 5.8203 20.1797 0 13 0C5.8203 0 0 5.8203 0 13C0 20.1797 5.8203 26 13 26Z"/>
  <path fill-rule="evenodd" clip-rule="evenodd" d="M18.0472 10.1594L17.7886 9.97601L17.7884 9.9759L17.7881 9.97565L17.7877 9.97541C17.385 9.68992 16.9652 9.39228 16.5529 9.09655C16.5418 9.08811 16.5307 9.07968 16.5169 9.07124C16.4614 9.02906 16.3976 8.98407 16.32 8.95876L16.3145 8.95595C15.0898 8.6557 13.8467 8.34842 12.6357 8.04908L12.2889 7.96336C11.6903 7.81579 11.0924 7.66822 10.4944 7.52065L10.4938 7.52049C9.89566 7.37287 9.2975 7.22524 8.69865 7.07761C8.66815 7.06918 8.63766 7.06074 8.60439 7.05231C8.49626 7.02138 8.3715 6.98763 8.23843 7.00451C8.19961 7.01013 8.16634 7.02419 8.13585 7.04387L8.10258 7.07199C8.0499 7.1226 8.02218 7.18728 8.00832 7.22383L8 7.24633V7.37567L8.00554 7.39536C8.57463 9.01274 9.15468 10.6476 9.72567 12.2569L9.72576 12.2572C9.91414 12.7881 10.1015 13.3163 10.2872 13.8402L10.8053 15.2998L10.8054 15.2999L10.8054 15.3L10.8058 15.3011C11.2183 16.4629 11.6364 17.6407 12.0477 18.8032C12.0838 18.9156 12.1863 18.9888 12.3139 19H12.3416C12.4608 19 12.5662 18.941 12.6188 18.8453L14.8146 15.5976C15.0821 15.2026 15.3497 14.8068 15.6172 14.411C15.8847 14.0152 16.1523 13.6195 16.4198 13.2244C16.5293 13.0627 16.6388 12.9003 16.7484 12.7379C16.8579 12.5755 16.9674 12.4132 17.0769 12.2515L17.122 12.1846C17.4683 11.6713 17.8242 11.1437 18.1775 10.629L18.1969 10.6009V10.5672C18.2053 10.4687 18.208 10.2663 18.0472 10.1594ZM15.4744 11.3432C15.282 11.445 15.0881 11.548 14.893 11.6515L14.8929 11.6516C14.5652 11.8255 14.2344 12.0011 13.9025 12.1756L14.8285 11.1689C15.164 10.8016 15.5122 10.4237 15.8565 10.05L15.8566 10.0499L16.0095 9.88387L16.0178 9.87544C16.0511 9.83045 16.0927 9.78827 16.137 9.74328L16.1601 9.72025C16.1838 9.69671 16.2083 9.67238 16.2313 9.64486C16.4365 9.78827 16.6444 9.93449 16.844 10.0779C16.9882 10.1819 17.1351 10.286 17.2848 10.39C16.6749 10.7049 16.065 11.0283 15.4744 11.3432ZM12.9349 12.5327C13.3424 12.0912 13.7528 11.6441 14.1492 11.2083L14.4986 10.8273C14.9091 10.3797 15.3271 9.92398 15.7434 9.47334C14.9393 9.27508 14.1345 9.07683 13.3298 8.87857C12.5251 8.68035 11.7205 8.48213 10.9166 8.28391C10.631 8.2108 10.3399 8.14051 10.0599 8.07302C9.74108 7.9971 9.4167 7.91837 9.0951 7.83401C9.11159 7.85426 9.12808 7.87423 9.14449 7.8941L9.14449 7.8941L9.1445 7.89411C9.18049 7.9377 9.21608 7.9808 9.25036 8.02522C9.27525 8.05588 9.30014 8.08711 9.32513 8.11846C9.37806 8.18487 9.43139 8.25181 9.48601 8.31484L9.48879 8.31765L10.0225 8.96869L10.5562 9.61956C11.338 10.5728 12.1448 11.5598 12.9349 12.5327ZM12.7547 16.6886L12.7804 16.4428L12.7804 16.4426C12.8031 16.2262 12.8261 16.0075 12.8462 15.7916L12.8711 15.5514C12.8878 15.3908 12.9044 15.2302 12.921 15.0746L12.9386 14.9062C12.9721 14.5849 13.0064 14.2559 13.0347 13.933L13.043 13.8655C13.0707 13.6237 13.0985 13.3734 13.1151 13.1232C13.1456 13.1063 13.1789 13.0894 13.2149 13.0754C13.2253 13.0704 13.2357 13.0657 13.2461 13.061C13.2773 13.0467 13.3085 13.0325 13.3397 13.0135C13.9801 12.6733 14.6205 12.333 15.2637 11.9956C15.9042 11.6582 16.5612 11.3095 17.2127 10.9636C16.6194 11.8353 16.0234 12.7154 15.4467 13.5731L15.1215 14.0543C14.7289 14.6351 14.3301 15.2253 13.933 15.8085C13.8201 15.977 13.7046 16.1473 13.5899 16.3164L13.5899 16.3164C13.5018 16.4464 13.4141 16.5756 13.3286 16.7027C13.1068 17.0289 12.8794 17.3635 12.6577 17.6981C12.6854 17.3607 12.7186 17.0204 12.7547 16.6886ZM8.85329 8.39576C8.86561 8.42982 8.87793 8.46387 8.88994 8.49762C9.5166 10.2675 10.1433 12.0348 10.7699 13.8022C11.0831 14.6855 11.3963 15.5688 11.7095 16.4524L12.0061 17.2876C12.045 17.4029 12.0865 17.5209 12.1281 17.6334C12.1335 17.6486 12.1392 17.6641 12.145 17.68C12.1544 17.7053 12.164 17.7312 12.1725 17.7571C12.1838 17.65 12.1946 17.5428 12.2053 17.4361C12.2181 17.3077 12.2309 17.1801 12.2446 17.0542C12.2497 17.0055 12.2548 16.9567 12.2599 16.9078C12.3134 16.3972 12.3681 15.8742 12.4137 15.3558L12.4165 15.3361C12.4165 15.3361 12.4608 14.9481 12.4802 14.7766C12.4834 14.7484 12.4867 14.7202 12.49 14.6918C12.5012 14.5953 12.5126 14.4976 12.519 14.3998V14.3969C12.5412 14.1973 12.5606 14.0005 12.58 13.8036C12.5923 13.6905 12.6041 13.5755 12.616 13.4596C12.6337 13.2875 12.6516 13.1135 12.6715 12.9404C12.5957 12.8552 12.5244 12.7669 12.4544 12.6801C12.4296 12.6495 12.405 12.619 12.3804 12.5889C12.3083 12.4989 12.2335 12.4061 12.1586 12.319C11.9054 12.0078 11.6522 11.6991 11.399 11.3904C11.2724 11.2361 11.1458 11.0817 11.0192 10.9271C10.2845 10.0329 9.53037 9.11061 8.78182 8.19393C8.804 8.25954 8.82864 8.32765 8.85329 8.39576Z" fill="black"/>
</symbol>

<symbol id="landing-coin-bnb" viewBox="0 0 27 26">
  <path d="M5.50184 4.00957L13.4966 0L21.4913 4.00957L18.4916 5.41913L13.4966 2.92574L8.37175 5.41913L5.50184 4.00957ZM21.3683 8.99043L18.4916 7.58087L13.4966 10.0743L8.37175 7.58087L5.49501 8.99043V11.9162L10.4968 14.4096V19.503L13.3736 21.0191L16.2503 19.503V14.5221L21.2522 12.0287V8.99636H21.3683V8.99043ZM21.3683 17.0096V14.0838L18.4916 15.6V18.4132L21.3683 17.0096ZM23.4934 17.9809L18.4984 20.4743V23.4L26.5 19.3904V11.3772L23.5003 13L23.4934 17.9809ZM20.6167 6.50296L23.4934 8.01913V10.9449L26.3702 9.4287V6.50296L23.4934 4.98679L20.6167 6.50296ZM10.4968 21.5581V24.4838L13.3736 26L16.2503 24.4838V21.5581L13.3736 23.0743L10.4968 21.5581ZM5.49501 17.0096L8.37175 18.4191V15.4934L5.49501 13.9772V17.0096ZM10.4968 6.50296L13.3736 8.01913L16.3733 6.50296L13.4966 4.98679L10.4968 6.50296ZM3.37674 8.01913L6.37648 6.50296L3.37674 4.98679L0.5 6.50296V9.4287L3.37674 10.9449V8.01913ZM3.37674 13L0.5 11.4838V19.497L8.50158 23.5066V20.5809L3.49974 18.0875V12.9941L3.37674 13Z" fill="#F0B90B"/>
</symbol>

<symbol id="landing-coin-arbitrum" viewBox="0 0 26 28">
  <path d="M1.5127 8.51244V19.4873C1.5127 20.16 1.90622 20.8328 2.47219 21.167L12.0451 26.6544C12.6641 26.9886 13.3981 26.9886 14.0171 26.6544L23.59 21.167C24.209 20.8328 24.5495 20.16 24.5495 19.4873V8.51244C24.5495 7.8397 24.156 7.16696 23.59 6.83279L14.0127 1.34535C13.3937 1.01118 12.6597 1.01118 12.0406 1.34535L2.46777 6.83279C1.84874 7.16696 1.5127 7.8397 1.5127 8.51244Z" fill="#213147"/>
  <path d="M15.1403 16.1279L13.7873 19.8258C13.7298 19.9357 13.7298 20.05 13.7873 20.1599L16.1528 26.5444L18.8545 24.9746L15.5869 16.1279C15.5338 15.9037 15.2508 15.9037 15.1403 16.1279Z" fill="#12AAFF"/>
  <path d="M17.8423 9.85788C17.7848 9.63364 17.5062 9.63364 17.3913 9.85788L16.0382 13.5557C15.9807 13.6657 15.9807 13.78 16.0382 13.8899L19.8674 24.3635L22.569 22.7938L17.8423 9.85788Z" fill="#12AAFF"/>
  <path d="M13 1.73681C13.0575 1.73681 13.1105 1.73681 13.168 1.79397L23.5279 7.7299C23.6385 7.78706 23.696 7.89698 23.696 8.06407V19.9359C23.696 20.0459 23.6385 20.2173 23.5279 20.2701L13.168 26.206C13.1105 26.2632 13.0575 26.2632 13 26.2632C12.9425 26.2632 12.8895 26.2632 12.832 26.206L2.47206 20.2701C2.36151 20.2129 2.30403 20.103 2.30403 19.9359V8.06407C2.30403 7.95414 2.36151 7.78266 2.47206 7.7299L12.832 1.79397C12.885 1.73681 12.9425 1.73681 13 1.73681ZM13 0C12.6065 0 12.266 0.109925 11.93 0.281407L1.57004 6.21734C0.893527 6.60867 0.5 7.28141 0.5 8.06407V19.9359C0.5 20.6658 0.893527 21.3913 1.57004 21.7827L11.93 27.7186C12.266 27.8857 12.6065 28 13 28C13.3935 28 13.734 27.8901 14.07 27.7186L24.43 21.7827C25.1065 21.3913 25.5 20.7186 25.5 19.9359V8.06407C25.5 7.33417 25.1065 6.60867 24.43 6.21734L14.1231 0.281407C13.7871 0.114322 13.4466 0 13.0531 0H13Z" fill="#9DCCED"/>
  <path d="M6.18652 24.3593L7.1416 21.7827L9.05617 23.3524L7.25656 25.0321L6.18652 24.3593Z" fill="#213147"/>
  <path d="M12.1551 7.22412H9.50653C9.3385 7.22412 9.113 7.33405 9.05552 7.50553L3.42676 22.8466L6.12839 24.4163L12.3231 7.55829C12.3806 7.39121 12.2656 7.22412 12.0976 7.22412H12.1551Z" fill="black"/>
  <path d="M16.7136 7.22415H14.0651C13.897 7.22415 13.6715 7.33408 13.6141 7.50556L7.19824 24.9748L9.89987 26.5445L16.8817 7.50556C16.9391 7.33847 16.8242 7.17139 16.6561 7.17139L16.7136 7.22415Z" fill="black"/>
</symbol>

<symbol id="landing-tick-btn" viewBox="0 0 20 20">
  <path fill-rule="evenodd" clip-rule="evenodd" d="M17.0177 14.6489C16.6808 14.6489 16.344 14.5208 16.087 14.2638L10.0001 8.1761L3.91327 14.2638C3.39923 14.777 2.5659 14.777 2.05186 14.2638C1.5387 13.7498 1.5387 12.9165 2.05186 12.4024L9.06941 5.38487C9.58345 4.87171 10.4168 4.87171 10.9308 5.38487L17.9484 12.4024C18.4615 12.9165 18.4615 13.7498 17.9484 14.2638C17.6914 14.5208 17.3545 14.6489 17.0177 14.6489Z" fill="white"/>
</symbol>

<symbol id="rules-info" viewBox="0 0 17 22" >
<path fill-rule="evenodd" clip-rule="evenodd" d="M4 0.5H12.28C14.4891 0.5 16.28 2.29086 16.28 4.5V17.12C16.28 19.3291 14.4891 21.12 12.28 21.12H4C1.79086 21.12 0 19.3291 0 17.12V4.5C0 2.29086 1.79086 0.5 4 0.5ZM10.53 6.58H3.83C3.42683 6.58 3.1 6.90683 3.1 7.31C3.1 7.71317 3.42683 8.04 3.83 8.04H10.53C10.9332 8.04 11.26 7.71317 11.26 7.31C11.26 6.90683 10.9332 6.58 10.53 6.58ZM8.62 16.04H3.83C3.42683 16.04 3.1 15.7132 3.1 15.31C3.1 14.9068 3.42683 14.58 3.83 14.58H8.62C9.02317 14.58 9.35 14.9068 9.35 15.31C9.35 15.7132 9.02317 16.04 8.62 16.04ZM3.83 12.04H12.45C12.8532 12.04 13.18 11.7132 13.18 11.31C13.18 10.9068 12.8532 10.58 12.45 10.58H3.83C3.42683 10.58 3.1 10.9068 3.1 11.31C3.1 11.7132 3.42683 12.04 3.83 12.04Z" />
</symbol>

<symbol id="form-email" viewBox="0 0 21 18">
  <path fill-rule="evenodd" clip-rule="evenodd" d="M13.9532 0.309051C13.1832 0.249993 12.2335 0.249996 11.0252 0.25H9.33901C8.1307 0.249996 7.18094 0.249993 6.41092 0.309051C5.62498 0.36933 4.97024 0.494083 4.36169 0.773058C3.35626 1.23397 2.50509 1.97509 1.91024 2.90756C1.75494 3.15101 1.62631 3.40771 1.51657 3.68458C1.14323 4.62653 0.970627 5.86979 0.719473 7.67889L0.698229 7.83188C0.484323 9.37196 0.317104 10.5759 0.266315 11.5457C0.214748 12.5303 0.27713 13.3508 0.573331 14.1041C1.05745 15.3353 1.95134 16.362 3.10425 17.0109C3.80964 17.4079 4.61378 17.5825 5.59613 17.6669C6.56366 17.75 7.77916 17.75 9.33402 17.75H11.0301C12.585 17.75 13.8005 17.75 14.768 17.6669C15.7504 17.5825 16.5545 17.4079 17.2599 17.0109C18.4128 16.362 19.3067 15.3353 19.7908 14.1041C20.087 13.3508 20.1494 12.5303 20.0978 11.5457C20.0471 10.5759 19.8798 9.3719 19.6659 7.83176L19.6415 7.6562C19.3755 5.73923 19.1973 4.45549 18.7632 3.48414C18.6729 3.282 18.5708 3.09084 18.4539 2.90756C17.8591 1.97509 17.0079 1.23397 16.0025 0.773058C15.3939 0.494083 14.7392 0.36933 13.9532 0.309051ZM4.98678 2.13661C5.37039 1.96075 5.829 1.85809 6.52563 1.80466C7.23161 1.75051 8.12399 1.75 9.36998 1.75H10.9942C12.2402 1.75 13.1325 1.75051 13.8385 1.80466C14.5352 1.85809 14.9938 1.96075 15.3774 2.13661C16.0996 2.46767 16.7141 2.99432 17.1517 3.65629L16.6015 4.20647C14.9198 5.88813 13.7108 7.09489 12.668 7.89053C11.6425 8.67297 10.8664 8.9868 10.0607 8.9868C9.25512 8.9868 8.47899 8.67297 7.45349 7.89053C6.41068 7.0949 5.20166 5.88813 3.52 4.20647L3.11909 3.80556C3.13723 3.77452 3.1558 3.74412 3.17483 3.71429C3.61451 3.02507 4.24363 2.47729 4.98678 2.13661ZM17.7313 5.19795C17.8757 5.86551 18.001 6.74811 18.1752 8.00263C18.3951 9.58593 18.5529 10.7262 18.5999 11.6241C18.6465 12.5146 18.5782 13.089 18.3949 13.5552C18.037 14.4652 17.3763 15.2241 16.5242 15.7037C16.0876 15.9494 15.5281 16.0961 14.6397 16.1724C13.7438 16.2494 12.5927 16.25 10.9942 16.25H9.36998C7.77149 16.25 6.62032 16.2494 5.7245 16.1724C4.83606 16.0961 4.27656 15.9494 3.83997 15.7037C2.98782 15.2241 2.32712 14.4652 1.96929 13.5552C1.78596 13.089 1.71763 12.5146 1.76426 11.6241C1.81129 10.7262 1.96901 9.58593 2.18891 8.00263C2.34594 6.872 2.46292 6.04274 2.59113 5.39892C4.17998 6.98769 5.43254 8.23534 6.54362 9.08307C7.70255 9.9673 8.79529 10.4868 10.0607 10.4868C11.3262 10.4868 12.4189 9.9673 13.5779 9.08307C14.7101 8.21918 15.9893 6.93999 17.6216 5.30771L17.7313 5.19795Z"/>
</symbol>

<symbol id="footer-telegram" viewBox="0 0 24 24">
  <path fill-rule="evenodd" clip-rule="evenodd" d="M22 12C22 17.5228 17.5228 22 12 22C6.47715 22 2 17.5228 2 12C2 6.47715 6.47715 2 12 2C17.5228 2 22 6.47715 22 12ZM12.3584 9.38244C11.3857 9.787 9.44178 10.6243 6.52658 11.8944C6.05319 12.0827 5.80521 12.2668 5.78264 12.4469C5.74449 12.7512 6.12559 12.8711 6.64456 13.0343C6.71515 13.0565 6.7883 13.0795 6.86328 13.1038C7.37386 13.2698 8.06069 13.464 8.41774 13.4717C8.74162 13.4787 9.10311 13.3452 9.5022 13.0711C12.226 11.2325 13.632 10.3032 13.7203 10.2831C13.7825 10.269 13.8688 10.2512 13.9273 10.3032C13.9858 10.3552 13.98 10.4536 13.9738 10.48C13.9361 10.641 12.4401 12.0318 11.6659 12.7515C11.4246 12.9759 11.2534 13.135 11.2184 13.1714C11.14 13.2528 11.0601 13.3298 10.9833 13.4038C10.509 13.8611 10.1533 14.204 11.003 14.764C11.4114 15.0331 11.7381 15.2556 12.0641 15.4776C12.4201 15.7201 12.7752 15.9619 13.2347 16.2631C13.3517 16.3398 13.4635 16.4195 13.5724 16.4971C13.9867 16.7925 14.359 17.0578 14.8188 17.0155C15.086 16.9909 15.3621 16.7397 15.5022 15.9903C15.8335 14.2193 16.4847 10.382 16.6352 8.80081C16.6484 8.66227 16.6318 8.48498 16.6185 8.40715C16.6051 8.32931 16.5773 8.21842 16.4761 8.13633C16.3563 8.03911 16.1714 8.01861 16.0886 8.02007C15.7125 8.0267 15.1355 8.22735 12.3584 9.38244Z" />
</symbol>

<symbol id="tick" viewBox="0 0 12 7" >
  <path d="M11.5327 2.02796C11.8243 1.73376 11.8222 1.25889 11.528 0.967309C11.2338 0.675726 10.7589 0.677844 10.4673 0.972041L8.72 2.73501C8.01086 3.4505 7.52282 3.94131 7.1093 4.27341C6.7076 4.596 6.44958 4.70668 6.2185 4.73613C6.07341 4.75462 5.92659 4.75462 5.7815 4.73613C5.55042 4.70668 5.2924 4.59601 4.89071 4.27341C4.47718 3.94131 3.98914 3.45051 3.28 2.73501L1.53269 0.972042C1.24111 0.677845 0.766238 0.675726 0.472041 0.96731C0.177844 1.25889 0.175726 1.73376 0.467309 2.02796L2.24609 3.82269C2.91604 4.49866 3.46359 5.05114 3.95146 5.44294C4.45879 5.85037 4.97373 6.14531 5.59184 6.22409C5.86287 6.25864 6.13714 6.25864 6.40816 6.22409C7.02628 6.14531 7.54122 5.85037 8.04854 5.44294C8.53641 5.05114 9.08396 4.49867 9.7539 3.82269L11.5327 2.02796Z"/>
</symbol>

</svg>
